<?xml version="1.0" encoding="UTF-8"?>
<svg xmlns="http://www.w3.org/2000/svg" viewBox="0 0 503.58 418.03">
  <defs>
    <style>.cls-1{fill:#e2512a;}.cls-2,.cls-3{fill:#fff;}.cls-3{stroke:#fff;stroke-miterlimit:10;}.cls-4{fill:#58585a;}</style>
  </defs>
  <g id="Ebene_2" data-name="Ebene 2">
    <g id="Layer_2" data-name="Layer 2">
      <path class="cls-1" d="M126.4,110.26c1,.74,6.44,5.94,7.43,8.17s6.93,9.65,8.66,18.06,3.22,19.55,2.23,23-1.49,10.14-4.21,15.59-15.84,23-17.57,24.75S116,207,115,209.25s-3.46,6.68-5.2,7.92-8.41,5.2-9.15,6.44A34,34,0,0,0,97,231c-.74,2.72-.49,3.47.5,4s6.19-.74,8.17-.74,9.4-2,10.39-2.72,7.18-7.68,8.17-8.91,3.71-7.18,7.17-10.65,10.89-10.14,13.12-11.38,6.43-6.19,7.67-7.42,4.46-7.92,5.69-9.66,3.72-7.92,5.7-9.65,2-5,3.21-4,4.21,6.19,4.46,8.91.74,15.59.49,18.32-.49,13.61-1,17.57-.49,9.65-.74,11.38-2.23,4.21-2.23,4.21-6.93,2-8.91,3.46-4,2.23-4.45,4.46,1.73,3.21,4,4,14.11,1,16.58-.25,4-1.73,4.7-3.22.25-3.21.75-5.94,1.73-11.63,3.21-14.6,4-12.87,4.7-18.56,3-24.5,3.22-27,.74-18.31,1.73-21.28.5-5.2,2.73-4,11.63,2.72,17.07,2.23,15.59-2.23,18.81-2.48,15.84-4.7,19.06-5.44,5.2-3,6.19-1.49,2.26,6.07,3,8.17c1,3,4.46,13.37,5.94,15.59s11.88,16.83,12.63,18.07S286,193.91,286,195.39s.74,5.45.25,6.68-1.73,3-3,5.94-11.14,14.61-13.86,16.09-7.67.74-10.4,2.48-4.7,3.46-4.2,5.19,2,2.23,4,3,7.67,1.24,9.4,1.49,8-1.5,9.65-2.23a42.28,42.28,0,0,0,6.56-5.32c1-1.11,9-10.52,10.15-11.63s10.89-13.24,11.63-14.36c0,0,2.1-3.58,3-5.56s.87-2.36.25-5.08-5.08-8.17-5.08-8.17c-.74-1.73-3.58-4.94-3.71-6.8s-.12-3.84.37-4.08,26.9,15.71,29.95,19.55c1.82,2.28,3.59,4.33,3.71,8s-.37,22-.74,23.76.12,4.7-1.73,5.69-7.3,1.49-9.16,3.09-3.59,2.85-4.46,5-1.11,3.34-.37,4.09,11.51,1.36,11.51,1.36c2.6,0,11.14-1,12.62-2.48s2.35-5.69,2.85-8,5.81-40.22,5.94-41.21a30.59,30.59,0,0,0-1.73-8.16c-.87-2-8.42-9.78-8.91-10.64s-8.91-6.56-10.89-15.47-4.95-16.83-3-21.53,5.44-11.88,6.68-12.13,5.2,3.47,6.19,5.2,10.14,25.49,11.13,29.2,7.18,19.55,10.65,25,13.61,18.8,17.07,22,24.5,17.57,32.67,20.54,23.76,6.44,28.71,6.69,12.12.24,14.35-1.24,4.7-1.49,2.72-3.22-26.72-21-26.72-21c-1.49-2.47-16.83-19.79-19.8-31.18S395.17,135,394.18,132s-12.62-25.49-15.84-28.46-20-21.91-26-26-28.22-14.11-34.53-14.85-30.07-4.08-37.12-3.34S248,61.63,235.79,63.86s-24.5,5.19-33.41,5.56-17.07,1.24-21-.74S163,61.75,162.54,59.77s-4.95-5.44-5.45-8.91-4-4.45-3.46-5.94,3.46-6.43,4-12.37-1-20.29-1.49-23.26,1.49-5.94-2.47-5.94-9.9,1-12.87,4-10.89,9.4-11.39,11.38-3,8.41-4,10.89-7.42,4-11.38,2.47-9.9.5-10.89-2-5-6.93-7.92-10.39S87.3,10.28,82.35,9.29,73.94,3.84,73,7.8,72,31.06,73.44,36s5.45,10.89,4,12.38-2.84,4.33-4.33,6.8.21,14.6-.28,15.09S68.12,73,69.11,75s4.65.37,7.38,4c3.37,4.48,3.88,5.51,9.33,8.48s7.92,3,9.9,7.42,5.94,9.41,8.41,12.38,2.48,4.45,7.43,5.44,6.92-1.48,10.88-2Z"></path>
      <path class="cls-2" d="M73.32,71.42c3-.92,12.62.5,16.7,2.14a23,23,0,0,1,11.23,12.06,46.58,46.58,0,0,1,3.25,15.78c0,2.48,1.12,5.54-1.11,4.55s-7.06-10.77-8-11.76-5.7-5.44-8.42-7.55-8.23-5.47-10.36-8.53c-.82-1.17-6.1-1.81-6.72-3.22s3.47-3.47,3.47-3.47h0"></path>
      <path class="cls-2" d="M157.22,73.65c-6.56-3.34-18.57,2-21.54,4.17-2.24,1.65-6.59,4.36-9.31,11.29a30.48,30.48,0,0,0-2.23,13.61c0,2.48-2.23,6.93,0,5.94s5.94-10.39,6.93-11.38a80.6,80.6,0,0,1,7.18-6.93c2.72-2.11,10-4.82,13.36-6.44,5-2.41,9-8.78,9-8.78l-3.42-1.48"></path>
      <path class="cls-3" d="M396.5,216.24c.37-5.57,1.11-17.37,3.22-21.9,2.6-5.57,10.76-14.11,13.36-11.14s10.52,17.45,15,21.16,15.22,13.37,19.3,16.71,10.27,3.22,9,6.43-12.87,4.95-17.07,4.46-21.66-3.84-26.86-5.69S396.5,216.24,396.5,216.24Z"></path>
      <path class="cls-4" d="M99.53,236.56a5.24,5.24,0,0,1-4.35-1.71c-2.09-2.61-.33-6.71,1.45-10s4.77-5.31,7.73-7.41a26.19,26.19,0,0,0,5.64-4.74,38.22,38.22,0,0,0,2.78-4.24,48,48,0,0,1,3-4.58c2-2.52,4.1-5.13,6.32-7.82,9.65-11.69,20.6-24.95,20.47-39-.19-22.3-4.38-32.9-18.66-47.28a2.09,2.09,0,0,1,0-3,2.11,2.11,0,0,1,3,0c15,15.13,19.67,26.85,19.87,50.19.14,15.6-11.31,29.48-21.42,41.72-2.19,2.65-4.31,5.22-6.23,7.71a40.84,40.84,0,0,0-2.72,4.17,42.46,42.46,0,0,1-3.08,4.69,30.23,30.23,0,0,1-6.51,5.57c-2.7,1.9-5.24,3.69-6.47,6-2.34,4.32-1.86,5.41-1.85,5.42.92.7,6-.73,8.47-1.41,1-.28,2-.56,2.87-.78,6.58-1.67,10.54-7.32,14.73-13.31a68.75,68.75,0,0,1,6.1-7.88,96.13,96.13,0,0,1,8.72-7.78c4.92-4,9.57-7.87,12.71-13.08.52-.87,1.29-2.3,2.19-4,4.75-8.9,9-16.35,12.6-17.51a2.08,2.08,0,0,1,1.27,4c-2.31.74-8,11.47-10.18,15.51-1,1.79-1.76,3.28-2.31,4.2-3.5,5.82-8.65,10-13.63,14.15a92,92,0,0,0-8.34,7.42,64.21,64.21,0,0,0-5.71,7.4c-4.45,6.35-9,12.92-17.13,15-.87.22-1.8.49-2.77.75A34.53,34.53,0,0,1,99.53,236.56Z"></path>
      <path class="cls-4" d="M265.69,237.16c-.82,0-1.67,0-2.55-.08-8.92-.6-10.31-4.08-10.34-6.09-.07-4.06,5.46-7.8,12.6-8.52,2.59-.25,10-7,15.37-15,3.5-5.26,4.34-8.47,4-9.63-2.86-9.39-7.51-15.87-12.89-23.37-1.42-2-2.88-4-4.36-6.17-3.65-5.33-5.34-7.81-7.6-13.33-1-2.46-4.36-10.92-5-16.17a2.1,2.1,0,0,1,1.79-2.35,2.06,2.06,0,0,1,2.34,1.8c.5,3.78,2.8,10.3,4.79,15.14,2.09,5.11,3.6,7.32,6.91,12.16,1.73,2.52,3.17,4.54,4.57,6.49,5.37,7.48,10.43,14.54,13.49,24.59.89,2.91-.62,7.33-4.5,13.15-4.33,6.5-13.18,16.36-18.42,16.89-5.79.58-8.87,3.3-8.85,4.29,0,.25,1.14,1.63,6.45,2,12.65.88,17.8-5.3,25.64-14.59.85-1,1.72-2,2.71-3.12,5.07-5.76,15.62-17.75,15.39-23.34-.08-1.76-1.79-3.94-3.62-6.25-3.34-4.24-7.5-9.51-4.19-16.13a2.08,2.08,0,1,1,3.73,1.86c-2,4,.2,7.2,3.74,11.69,2.26,2.85,4.38,5.55,4.51,8.66.27,6.71-8,16.66-16.43,26.27-1,1.1-1.81,2.06-2.46,2.82C284.7,230,278.61,237.16,265.69,237.16Z"></path>
      <path class="cls-4" d="M394.44,217.61c-.11-.83-.27-1.67-.43-2.57a41.14,41.14,0,0,1-.51-14.38,30.45,30.45,0,0,1,6.91-15.07c2.61-3.26,9.8-6.94,13.53-6.94v4.17c-2.26,0-8.36,3-10.25,5.35a26.27,26.27,0,0,0-6.06,13.11,37,37,0,0,0,.49,13c.17,1,.33,1.85.45,2.72Z"></path>
      <path class="cls-4" d="M104.53,108.55a2.08,2.08,0,0,1-2-1.56,32,32,0,0,1-.64-5.31c-.09-1.26-.18-2.49-.33-3.45l-.31-2.09A41.14,41.14,0,0,0,99.76,89c-1.25-3.89-2.42-5.74-3.8-7.31A2.09,2.09,0,0,1,99.11,79a23.42,23.42,0,0,1,4.62,8.78,45.11,45.11,0,0,1,1.63,7.81l.3,2c.17,1.06.27,2.43.37,3.82a29.15,29.15,0,0,0,.52,4.54,2.09,2.09,0,0,1-1.49,2.55A2,2,0,0,1,104.53,108.55Z"></path>
      <path class="cls-4" d="M124.7,108.68a2.41,2.41,0,0,1-.53-.07,2.08,2.08,0,0,1-1.49-2.55,29.17,29.17,0,0,0,.51-4.52c.1-1.4.2-2.78.38-3.86l.31-2a44.55,44.55,0,0,1,1.61-7.79,23.16,23.16,0,0,1,4.63-8.77,2.08,2.08,0,1,1,3.14,2.74,19.59,19.59,0,0,0-3.8,7.31,41.72,41.72,0,0,0-1.46,7.1l-.31,2.12c-.16,1-.24,2.22-.33,3.48a33,33,0,0,1-.64,5.29A2.1,2.1,0,0,1,124.7,108.68Z"></path>
      <path class="cls-4" d="M326.46,244.42a39.63,39.63,0,0,1-4.42-.21c-1.78-.21-6.5-.76-6.61-4-.18-5.42,5.25-9.61,10.45-10.79s5.27-2.43,5.43-8.34l0-1c.05-1.67.23-3.61.41-5.69.63-6.88,1.4-15.23-2-20.17l-1.84-2,.05,0c-4.07-3.58-14.7-10.9-20.29-14.74-2.9-2-5.34-3.68-6.74-4.71-3.18-2.33-12.16-10.75-12.53-11.11a129.36,129.36,0,0,1-12-13c-1.09-1.33-2.28-2.77-3.77-4.51-5.23-6.09-11.36-6.44-11.62-6.45h0c-8.66,6.63-46,17.22-65.92,11.38-1.49,5.88-1.49,11.91-1.48,18.87V169c0,10.41-1.47,19.62-2.91,28.52l-.59,3.72a85.62,85.62,0,0,1-3.66,13c-2.37,7.07-4.82,14.39-4,19.5.29,1.88,0,5.41-4.88,7.84-7.33,3.61-21.71,3-25.66-1.15l-.77-.8.24-1.08c1.34-6.17,5.82-7.7,9.42-8.92a14.85,14.85,0,0,0,5.69-2.87c1.62-1.54,1.83-12,1.89-15.47,0-1.44.06-2.63.11-3.41.64-9.43,1.07-29.42-1.87-37.67-1.47-4.14-5.65-8.44-9-11.89-1.15-1.19-2.2-2.27-3-3.21l-1.05-1.18c-2.62-2.9-8.06-8.93-10.27-13.13-1.85-3.51-4.8-10.44-5-11a2.09,2.09,0,0,1,4-1.3c.21.56,3,7.05,4.71,10.36,2,3.74,7.37,9.73,9.68,12.28l1.11,1.25c.77.88,1.76,1.91,2.86,3,3.64,3.74,8.17,8.4,10,13.4,4,11.11,2.17,38.2,2.1,39.34-.05.74-.07,1.87-.1,3.22-.18,8.58-.53,15.89-3.2,18.41a18.51,18.51,0,0,1-7.22,3.8c-3.36,1.14-5.35,1.94-6.33,4.59,3.63,1.91,14.23,2.47,19.91-.33,2.92-1.44,2.69-2.91,2.61-3.47-.94-6.11,1.68-13.91,4.2-21.46a82.58,82.58,0,0,0,3.5-12.3l.59-3.73c1.41-8.74,2.86-17.78,2.86-27.86v-1.14c0-7.1,0-13.8,1.91-20.8l1.75-3.19,1.65.6c18.46,6.72,59.19-5.54,64.21-10.61a5,5,0,0,1,2.68-.37c-.11-.05,7.68.28,14.15,7.83,1.52,1.77,2.72,3.23,3.83,4.58a126.6,126.6,0,0,0,11.67,12.64c.06.06,9.14,8.58,12.12,10.77,1.38,1,3.78,2.66,6.64,4.63,14.5,10,21.82,15.34,23.22,18a17.61,17.61,0,0,1,2.56,6.43l.45,3a73.87,73.87,0,0,1-.4,13.34c-.18,2-.35,3.84-.4,5.44l0,1c-.16,6-.29,10.38-8.67,12.29-2.79.64-6.79,2.94-7.18,6,2.41,1.06,12.07,1.34,18.29-.74,2.32-.76,3.1-1.57,3.19-1.9,2.89-10.58,4.36-21.07,5.92-32.17l1-6.82c1.74-11.93-1.87-16-8.43-23.28-1.62-1.81-3.39-3.78-5.25-6.07-8.78-10.77-12.06-26.36-8-37.92a31.59,31.59,0,0,1,6-9.55l1.37-1.47,2.15,1.86c5.71,4.47,8.86,13.92,11.38,21.53.5,1.48,1,2.87,1.4,4.1.87,2.39,1.72,4.92,2.6,7.5,2.5,7.38,5.08,15,8.43,21.2,9.22,17,17.08,24.93,26,31.55,13.74,10.15,26.39,17.54,43.5,20.62,7.06,1.27,18.86,2.2,24.24-.06a76.15,76.15,0,0,0-6.73-5.4c-6.27-4.71-14.87-11.17-22.29-19.78-12-13.92-20.12-37.39-26.07-54.53-1.27-3.63-2.42-6.94-3.47-9.75-10.39-27.82-29.09-50.88-52.65-64.94-27.54-16.45-72.86-14-93-10.34-6.82,1.22-12.42,2.31-17.35,3.27-12.59,2.46-20.9,4.07-33.9,4.89-11.39.76-23.07-2.69-37.91-11a2.09,2.09,0,0,1,2-3.64c14.29,8,25,11.18,35.59,10.51,12.74-.8,20.95-2.4,33.37-4.82,4.95-1,10.57-2.07,17.42-3.29,20.64-3.71,67.24-6.21,95.85,10.87,24.37,14.54,43.7,38.36,54.42,67.06,1.06,2.83,2.22,6.18,3.5,9.84,5.84,16.82,13.84,39.86,25.3,53.17,7.12,8.28,15.51,14.57,21.63,19.17s9.05,6.8,8.93,9.34a3.07,3.07,0,0,1-1.54,2.47c-7.62,4.59-26.07,1.46-28.15,1.1-17.9-3.22-31-10.88-45.24-21.38-9.4-6.94-17.63-15.2-27.22-32.91-3.52-6.52-6.16-14.31-8.72-21.85-.86-2.55-1.71-5.06-2.56-7.43-.46-1.26-.93-2.68-1.44-4.2-2.09-6.28-4.89-14.73-9.19-18.85a24.9,24.9,0,0,0-3.83,6.56c-4,11.44.6,25.71,7.27,33.9,1.82,2.23,3.54,4.15,5.12,5.91,6.67,7.44,11.49,12.81,9.46,26.67l-1,6.8c-1.51,10.74-3.06,21.84-6,32.69C343.72,243.14,333.34,244.42,326.46,244.42Z"></path>
      <path class="cls-4" d="M119.33,108a8.67,8.67,0,0,1-6.48,1,6.78,6.78,0,0,1-4.45-2.71c-1.55-2.46-.67-4.06-.55-4.38.42-1.19,2.75-2.23,4.49-1.73a14.09,14.09,0,0,1,2.35,1,4.85,4.85,0,0,0,1.42-.44,4.53,4.53,0,0,1,4.34.21c1.21.7,1.5,2.38,1.18,3.88A5.53,5.53,0,0,1,119.33,108Z"></path>
      <path class="cls-4" d="M114.78,114.43a15.49,15.49,0,0,1-11.84-5.6,36.2,36.2,0,0,1-3.68-5.17c-.32-.63-1.17-2-2-3.37L96,98.23a15.46,15.46,0,0,0-3.75-4.54,42.2,42.2,0,0,0-5.35-3.57c-.92-.54-1.8-1.06-2.58-1.58a28,28,0,0,1-8.23-8A8.85,8.85,0,0,0,75,79c-1.54-.15-6.8-.84-8.42-3.27a3.2,3.2,0,0,1-.37-2.16,3.63,3.63,0,0,1,2.33-2.15c1-.45,1.67-.81,1.91-1.46.66-1.82.4-4.47.21-6.4-.07-.69-.13-1.31-.15-1.83-.1-2.22.42-6.75,1.61-9.13,1.36-2.72,2.15-4.26,2.58-5-7-14.2-6.25-38.35-4.62-41.55.4-.77,1.48-2.08,4.29-2.19h.34c6,0,18,5.59,27.58,21.34,1.69,2.77,7.92,3.66,11,3.75,8.87.23,9.49-1.44,9.51-1.51,3.33-12.71,13.66-21.6,21.5-25.35,2.44-1.18,7-3,9.85-1.67,1.3.59,2.94,2.12,4.14,8.9,1.59,9,1.85,26.88-2.58,34.4,2,2,4.59,6.61,5.19,7.87a25.5,25.5,0,0,1,2.34,9.18A30.51,30.51,0,0,1,162.12,71a7.12,7.12,0,0,0,1.46.76,2.09,2.09,0,0,1,.23,4,10.77,10.77,0,0,0-1.91,1.06c-.25.27-.65.75-1.11,1.29a44,44,0,0,1-3.09,3.4l-.62.56a36.78,36.78,0,0,1-4.33,3.59,41.19,41.19,0,0,1-5.66,2.92c-.78.35-1.54.69-2.22,1h0s-3.49,1.81-5.3,2.9c-1.21.89-3.62,2.71-4.31,3.4l-1,1a18.27,18.27,0,0,0-2.84,3.14c-.41.71-.85,1.39-1.31,2.09s-1,1.57-1.53,2.47a26.06,26.06,0,0,1-2.24,4c-1.18,1.56-5.46,5.63-11.16,5.76ZM72.05,74.26a17.57,17.57,0,0,0,3.56.63c1.39.07,2.75,1.25,4,3.51a23.93,23.93,0,0,0,7,6.66c.73.48,1.55,1,2.41,1.48a45.53,45.53,0,0,1,5.87,3.93,19.32,19.32,0,0,1,4.67,5.61l1.24,2c.92,1.49,1.84,3,2.19,3.69a37.12,37.12,0,0,0,3.24,4.47,11.27,11.27,0,0,0,8.54,4h.27a11.68,11.68,0,0,0,7.92-4.08,25.24,25.24,0,0,0,1.87-3.44c.65-1.15,1.2-2,1.74-2.85.42-.64.82-1.27,1.21-1.92a20.52,20.52,0,0,1,3.54-4l1-1a61.35,61.35,0,0,1,5-3.93c2-1.24,5.71-3.14,5.71-3.14q1.14-.56,2.4-1.11a39.43,39.43,0,0,0,5.1-2.61A36.33,36.33,0,0,0,154.27,79l.64-.59a36.7,36.7,0,0,0,2.7-3L158,75a2.16,2.16,0,0,1,.62-.87l.28-.23a3.52,3.52,0,0,1-1.38-2A2.37,2.37,0,0,1,158,70.1a24.13,24.13,0,0,0,1-9,21.41,21.41,0,0,0-2-7.71c-1-2.22-3.75-6.27-4.58-6.87l-.92-.6a2,2,0,0,1-.92-1.54,2.09,2.09,0,0,1,.62-1.69c2.55-2.48,4.09-11.24,3.84-21.81-.24-10.25-2-15.94-2.85-16.71-.36-.13-2.56,0-6.21,1.7-7,3.37-16.3,11.32-19.26,22.65-1.31,5-9.73,4.72-13.34,4.63-2.19-.06-11.61-.57-14.76-5.77C91.5,15.52,82.79,9.79,77,8.38c-2.18-.53-3.27-.28-3.47-.15-.89,2.29-1.62,25.25,5.12,38.11a2,2,0,0,1,.23.68,4,4,0,0,1-.62,2.66c-.36.55-1.58,3-2.47,4.81a19.7,19.7,0,0,0-1.18,7.08c0,.45.07,1,.13,1.6.23,2.33.56,5.53-.45,8.24A5.75,5.75,0,0,1,72.05,74.26Zm3.29,4.8h0Z"></path>
      <path class="cls-4" d="M83.3,45.08a2.42,2.42,0,0,1-.82-.15,2.22,2.22,0,0,1-1.16-2.82c.59-1.59,6.54-6.83,9.68-9.16a32.33,32.33,0,0,0-4.39-9.57,43.58,43.58,0,0,0-9.54-9.13,2.09,2.09,0,0,1,.05-3.95C79.63,9.45,88.2,18.44,90,20.94s5.68,10.13,5.16,13.14a3.47,3.47,0,0,1-1.1,1.81,62.1,62.1,0,0,0-9,7.94A1.86,1.86,0,0,1,83.3,45.08Z"></path>
      <path class="cls-4" d="M143.12,41.54a2.1,2.1,0,0,1-1.73-.91c-.8-.72-4.61-3-6.91-4.38l-2.74-1.66a3.44,3.44,0,0,1-1.2-1.74c-.68-2.93,2.52-10.46,4.41-13.42,1.65-2.58,9.53-12.1,12.27-11.33a2.09,2.09,0,0,1,1.46,2.56,2.11,2.11,0,0,1-1.2,1.37,43.61,43.61,0,0,0-9,9.65,32.18,32.18,0,0,0-3.84,9.78l2,1.21c6.77,4,7.94,4.88,8.41,5.95A2.09,2.09,0,0,1,144,41.37,2,2,0,0,1,143.12,41.54Z"></path>
      <path class="cls-4" d="M101.76,59.18a2.05,2.05,0,0,1-1.14-.34C95.84,55.72,92.31,57,91,57.42c-.11,0-.7.22-.82.24a2.07,2.07,0,0,1-2.4-1.72,2.1,2.1,0,0,1,1.61-2.38c2-.67,7.06-2.44,13.52,1.78a2.09,2.09,0,0,1-1.14,3.84Z"></path>
      <path class="cls-4" d="M126.87,57.19l-1.64-1.34L124,54.17l1.24,1.68L124,54.21c5.07-4.54,10.53-3.88,14.24-2.54a2.09,2.09,0,0,1-1.41,3.93C131,53.51,127.88,56.28,126.87,57.19Z"></path>
      <path class="cls-4" d="M100.66,65a5.17,5.17,0,1,1-10.33,0,5,5,0,0,1,5.16-5.16c1.54.12.92,1.8,1.79,1.73C100.76,61.32,100.66,63.07,100.66,65Z"></path>
      <path class="cls-4" d="M138.05,63.5a5.17,5.17,0,0,1-10.34,0,5,5,0,0,1,5.17-5.17c1.54.13.92,1.81,1.79,1.74C138.15,59.83,138.05,61.58,138.05,63.5Z"></path>
      <path class="cls-1" d="M.81,330.34v-76h12v74c0,3.62,1,6.46,3.11,8.54A11,11,0,0,0,24.05,340v10.71Q.82,350.69.81,330.34Z"></path>
      <path class="cls-1" d="M94.72,316.86H46.1q0,11.85,6.48,18.2,5.73,5.55,14.74,5.55,10.28,0,17.14-6l5,8.63A22.52,22.52,0,0,1,81,348a46.1,46.1,0,0,1-16,2.65,29.85,29.85,0,0,1-21.6-8.63q-9.9-9.51-9.89-25.58,0-16.68,10.14-26.77a29.48,29.48,0,0,1,21.48-9q14.41,0,22.61,8.12,7.93,7.82,7.94,20.72A26.73,26.73,0,0,1,94.72,316.86Zm-29-26.08a18.93,18.93,0,0,0-19.28,17.39H83.76a17.06,17.06,0,0,0-4.53-12.1Q74.25,290.79,65.69,290.78Z"></path>
      <path class="cls-1" d="M149.84,349.43V307q0-7.56-3.72-11.91t-10.45-4.35a17.15,17.15,0,0,0-8.73,2.56,20.37,20.37,0,0,0-6.71,6v50.14h-12V254.31h12V289.4a17.83,17.83,0,0,1,7.72-6.21,25.79,25.79,0,0,1,11-2.48q10.71,0,16.79,7.05T161.81,307v42.39Z"></path>
      <path class="cls-1" d="M215.41,293.49a13.78,13.78,0,0,0-7.87-2.71q-6.37,0-11.12,5.86a21.69,21.69,0,0,0-4.76,14.11v38.68h-12V282h12v10.77q6.56-12,19.47-12a53.83,53.83,0,0,1,9.25,1.13Z"></path>
      <path class="cls-1" d="M265.55,293.49a13.79,13.79,0,0,0-7.88-2.71q-6.36,0-11.11,5.86a21.69,21.69,0,0,0-4.76,14.11v38.68h-12V282h12v10.77q6.55-12,19.46-12a53.82,53.82,0,0,1,9.26,1.13Z"></path>
      <path class="cls-1" d="M335.84,316.86H287.21q0,11.85,6.49,18.2,5.73,5.55,14.74,5.55,10.28,0,17.14-6l5,8.63a22.39,22.39,0,0,1-8.5,4.79,46.1,46.1,0,0,1-16,2.65,29.85,29.85,0,0,1-21.6-8.63q-9.9-9.51-9.89-25.58,0-16.68,10.14-26.77a29.47,29.47,0,0,1,21.48-9q14.42,0,22.61,8.12,7.93,7.82,7.94,20.72A26.73,26.73,0,0,1,335.84,316.86Zm-29-26.08a18.92,18.92,0,0,0-19.27,17.39h37.35a17.06,17.06,0,0,0-4.53-12.1Q315.37,290.79,306.8,290.78Z"></path>
      <path class="cls-1" d="M355.18,349.43V292h-9.26V282h21.23v67.46Zm6.55-93a7.16,7.16,0,0,1,5.26,2.17,7.38,7.38,0,0,1,0,10.45,7.41,7.41,0,1,1-5.26-12.62Z"></path>
      <path class="cls-1" d="M437.06,287.45l-5.92,8.44a17.69,17.69,0,0,0-6.45-3.47,27.25,27.25,0,0,0-9.11-1.64q-9.75,0-15.49,6.84t-5.73,18.74q0,11.83,5.86,18t16.25,6.21q8.05,0,16.25-6.24l4.72,10.08q-9.63,6.24-23.87,6.24-13.8,0-22.8-9.26t-9-25.07q0-16.12,9.35-25.89t25.61-9.76a33.62,33.62,0,0,1,11.34,2.2A32,32,0,0,1,437.06,287.45Z"></path>
      <path class="cls-1" d="M491.61,349.43V307q0-7.56-3.71-11.91t-10.46-4.35a17.09,17.09,0,0,0-8.72,2.56,20.27,20.27,0,0,0-6.71,6v50.14H450V254.31h12V289.4a17.8,17.8,0,0,1,7.71-6.21,25.84,25.84,0,0,1,11-2.48q10.69,0,16.78,7.05T503.58,307v42.39Z"></path>
      <path class="cls-4" d="M16.38,373.6a8.27,8.27,0,0,0-2.72-.51A4.59,4.59,0,0,0,10,374.76,6.26,6.26,0,0,0,8.61,379a8.76,8.76,0,0,0,.12,1.41h5.51v4H8.73v23H3.94v-23H0v-4H3.94q0-5.17,2.55-8.13a8.45,8.45,0,0,1,6.74-2.95,15.06,15.06,0,0,1,4.49.75Z"></path>
      <path class="cls-4" d="M19.11,393.84q0-6.25,3.37-10.11a11.24,11.24,0,0,1,8.87-3.85q5.81,0,9,3.7t3.2,10.26q0,6.54-3.28,10.32a11.26,11.26,0,0,1-8.94,3.77,11.19,11.19,0,0,1-9-3.81Q19.12,400.31,19.11,393.84Zm6.64-24.61a2.8,2.8,0,0,1,2.83,2.83,2.81,2.81,0,0,1-.82,2,2.74,2.74,0,0,1-2,.83,2.78,2.78,0,0,1-2-.83,2.74,2.74,0,0,1-.83-2,2.7,2.7,0,0,1,.83-2A2.81,2.81,0,0,1,25.75,369.23Zm-1.59,24.61q0,10.19,7.19,10.18a6.08,6.08,0,0,0,5.27-2.73,12.82,12.82,0,0,0,1.9-7.45q0-10-7.17-10a6.16,6.16,0,0,0-5.23,2.67A12.24,12.24,0,0,0,24.16,393.84Zm13.5-24.61a2.78,2.78,0,0,1,2,.82,2.71,2.71,0,0,1,.84,2,2.85,2.85,0,0,1-2.86,2.85,2.7,2.7,0,0,1-2-.83,2.77,2.77,0,0,1-.82-2,2.8,2.8,0,0,1,2.82-2.83Z"></path>
      <path class="cls-4" d="M63.31,385a5.51,5.51,0,0,0-3.15-1.09,5.64,5.64,0,0,0-4.46,2.35,8.7,8.7,0,0,0-1.9,5.66v15.5H49v-27h4.8v4.32a8.4,8.4,0,0,1,7.8-4.83,22.4,22.4,0,0,1,3.71.46Z"></path>
      <path class="cls-4" d="M85.86,407.4v-2c-1.67,1.66-4.09,2.5-7.28,2.5a10.37,10.37,0,0,1-8.22-3.64q-3.17-3.63-3.16-9.69a15.58,15.58,0,0,1,3.63-10.39,11,11,0,0,1,8.66-4.31q4.2,0,6.37,2V369.31h4.79V407.4Zm0-20.75a5.69,5.69,0,0,0-5-2.73,7.73,7.73,0,0,0-6.25,2.88,11.09,11.09,0,0,0-2.38,7.32q0,9.76,8.88,9.77a6.85,6.85,0,0,0,2.73-.72,4,4,0,0,0,2-1.53Z"></path>
      <path class="cls-4" d="M120.29,394.38H100.8q0,4.74,2.6,7.29a8.15,8.15,0,0,0,5.91,2.22,10.05,10.05,0,0,0,6.86-2.4l2,3.46a9,9,0,0,1-3.4,1.92,18.4,18.4,0,0,1-6.42,1.06,12,12,0,0,1-8.66-3.46q-4-3.81-4-10.25,0-6.69,4.07-10.73a11.82,11.82,0,0,1,8.6-3.61q5.79,0,9.07,3.26a11.15,11.15,0,0,1,3.18,8.31A10.88,10.88,0,0,1,120.29,394.38Zm-11.64-10.46a7.56,7.56,0,0,0-7.72,7h15a6.86,6.86,0,0,0-1.82-4.85A7.11,7.11,0,0,0,108.65,383.92Z"></path>
      <path class="cls-4" d="M140.41,385a5.56,5.56,0,0,0-3.16-1.09,5.63,5.63,0,0,0-4.45,2.35,8.71,8.71,0,0,0-1.91,5.66v15.5h-4.8v-27h4.8v4.32a8.4,8.4,0,0,1,7.8-4.83,22.16,22.16,0,0,1,3.71.46Z"></path>
      <path class="cls-4" d="M162.45,407.43V391.7c0-2.88-.44-4.89-1.3-6.05s-2.32-1.73-4.36-1.73a7.1,7.1,0,0,0-3.43,1,7.52,7.52,0,0,0-2.75,2.42v20.1h-4.8v-27h3.28l1.52,3.48q2.37-4,7.75-4,8.88,0,8.88,10.81v16.74Z"></path>
      <path class="cls-4" d="M194.18,380.39v17.24q0,6.25,5.43,6.26a7.47,7.47,0,0,0,4.34-1.36,6.54,6.54,0,0,0,2.6-3.16v-19h4.79v27h-4.79v-3.74a7.5,7.5,0,0,1-3.25,2.92,9.94,9.94,0,0,1-4.75,1.32c-3,0-5.23-.85-6.81-2.55s-2.36-4.11-2.36-7.24V380.39Z"></path>
      <path class="cls-4" d="M234.52,407.43V391.7c0-2.88-.44-4.89-1.3-6.05s-2.32-1.73-4.36-1.73a7.13,7.13,0,0,0-3.43,1,7.6,7.6,0,0,0-2.75,2.42v20.1h-4.8v-27h3.28l1.52,3.48q2.37-4,7.75-4,8.88,0,8.88,10.81v16.74Z"></path>
      <path class="cls-4" d="M263.27,407.4v-2c-1.66,1.66-4.09,2.5-7.27,2.5a10.41,10.41,0,0,1-8.23-3.64q-3.15-3.63-3.15-9.69a15.58,15.58,0,0,1,3.63-10.39,11,11,0,0,1,8.66-4.31q4.18,0,6.36,2V369.31h4.8V407.4Zm0-20.75a5.67,5.67,0,0,0-5-2.73,7.72,7.72,0,0,0-6.25,2.88,11.09,11.09,0,0,0-2.38,7.32q0,9.76,8.88,9.77a6.85,6.85,0,0,0,2.73-.72,4,4,0,0,0,2-1.53Z"></path>
      <path class="cls-4" d="M294.6,405.48l-1.69,2.45h-2.4V369.31h4.8v13.07a5.9,5.9,0,0,1,2.56-1.71,9.59,9.59,0,0,1,3.7-.79,11.53,11.53,0,0,1,9,3.84,14,14,0,0,1,3.44,9.7q0,6.76-3.46,10.64a11.91,11.91,0,0,1-9.36,3.87,10.39,10.39,0,0,1-3.78-.72A7.6,7.6,0,0,1,294.6,405.48Zm.71-19.44v15.6c0,.27.59.72,1.79,1.33a6.62,6.62,0,0,0,2.72.92q4.9,0,7-2.35c1.42-1.56,2.12-4.19,2.12-7.87a9.91,9.91,0,0,0-2.47-7.17,8.81,8.81,0,0,0-6.67-2.58,6.44,6.44,0,0,0-2.46.76A6.15,6.15,0,0,0,295.31,386Z"></path>
      <path class="cls-4" d="M342.08,394.38H322.59q0,4.74,2.61,7.29a8.14,8.14,0,0,0,5.9,2.22,10.1,10.1,0,0,0,6.87-2.4l2,3.46a9.08,9.08,0,0,1-3.41,1.92,18.38,18.38,0,0,1-6.41,1.06,11.94,11.94,0,0,1-8.66-3.46q-4-3.81-4-10.25,0-6.69,4.06-10.73a11.82,11.82,0,0,1,8.61-3.61q5.77,0,9.06,3.26a11.15,11.15,0,0,1,3.18,8.31A10.49,10.49,0,0,1,342.08,394.38Zm-11.63-10.46a7.58,7.58,0,0,0-7.73,7h15a6.86,6.86,0,0,0-1.82-4.85A7.1,7.1,0,0,0,330.45,383.92Z"></path>
      <path class="cls-4" d="M346.53,414.82l2.6-3.83a14.21,14.21,0,0,0,7.72,2.8,10,10,0,0,0,5.14-1.13,3.24,3.24,0,0,0,1.88-2.79c0-2.18-1.58-3.28-4.75-3.28a19,19,0,0,0-2.93.41,18.67,18.67,0,0,1-3.3.4q-5.76,0-5.76-4.34a3.12,3.12,0,0,1,1.35-2.43,8.45,8.45,0,0,1,3.35-1.56q-5.71-2.67-5.71-9.29a9.39,9.39,0,0,1,3-7.07,10.15,10.15,0,0,1,7.29-2.83,10.37,10.37,0,0,1,6.24,1.65l2.39-2.88,3.13,3-2.87,2.17A10,10,0,0,1,367.1,390a9.77,9.77,0,0,1-2.55,6.87,10.06,10.06,0,0,1-6.69,3.18l-4,.4a8,8,0,0,0-1.9.55c-.79.31-1.18.72-1.18,1.22,0,.69.82,1,2.47,1a21.61,21.61,0,0,0,3.38-.4,22.73,22.73,0,0,1,3.41-.39,9.27,9.27,0,0,1,6.22,1.91,6.58,6.58,0,0,1,2.24,5.29,7,7,0,0,1-3.35,6,14.64,14.64,0,0,1-8.47,2.3,17.77,17.77,0,0,1-5.52-.94A15.51,15.51,0,0,1,346.53,414.82Zm10.17-31.07a5.23,5.23,0,0,0-4.08,1.76,6.24,6.24,0,0,0-1.58,4.3,7.12,7.12,0,0,0,1.53,4.68,5.07,5.07,0,0,0,4.13,1.85,4.83,4.83,0,0,0,4-1.8,7.35,7.35,0,0,0,1.44-4.73,6.27,6.27,0,0,0-1.56-4.3A5,5,0,0,0,356.7,383.75Z"></path>
      <path class="cls-4" d="M373.84,399.78V369.31h4.8V399a4.58,4.58,0,0,0,1.25,3.42,4.42,4.42,0,0,0,3.27,1.25v4.29Q373.85,407.93,373.84,399.78Z"></path>
      <path class="cls-4" d="M411.48,394.38H392q0,4.74,2.6,7.29a8.15,8.15,0,0,0,5.91,2.22,10.1,10.1,0,0,0,6.87-2.4l2,3.46a9,9,0,0,1-3.4,1.92,18.4,18.4,0,0,1-6.42,1.06,11.94,11.94,0,0,1-8.65-3.46q-4-3.81-4-10.25,0-6.69,4.07-10.73a11.82,11.82,0,0,1,8.61-3.61q5.78,0,9.06,3.26a11.15,11.15,0,0,1,3.18,8.31A10.88,10.88,0,0,1,411.48,394.38Zm-11.64-10.46a7.58,7.58,0,0,0-7.72,7h15a6.86,6.86,0,0,0-1.82-4.85A7.11,7.11,0,0,0,399.84,383.92Z"></path>
      <path class="cls-4" d="M419.23,407.43v-23h-3.71v-4H424v27Zm2.62-37.26A2.87,2.87,0,0,1,424,371a2.83,2.83,0,0,1,.87,2.08,3,3,0,0,1-3,3,2.85,2.85,0,0,1-2.08-.87,3,3,0,0,1,0-4.21A2.84,2.84,0,0,1,421.85,370.17Z"></path>
      <path class="cls-4" d="M433.37,384.18h-3.13v-3.79h3.13v-5.66l4.79-1.84v7.5h7.42v3.79h-7.42v13.43q0,3.4,1.15,4.84a4.46,4.46,0,0,0,3.7,1.44,8.88,8.88,0,0,0,3.81-.93l.71,4.21a26.32,26.32,0,0,1-6.54.76,7.11,7.11,0,0,1-5.42-2.38,8.53,8.53,0,0,1-2.2-6Z"></path>
      <path class="cls-4" d="M474.92,394.38H455.43q0,4.74,2.6,7.29a8.15,8.15,0,0,0,5.91,2.22,10.05,10.05,0,0,0,6.86-2.4l2,3.46a9,9,0,0,1-3.4,1.92,18.4,18.4,0,0,1-6.42,1.06,12,12,0,0,1-8.66-3.46q-4-3.81-4-10.25,0-6.69,4.07-10.73a11.82,11.82,0,0,1,8.6-3.61q5.79,0,9.07,3.26a11.15,11.15,0,0,1,3.18,8.31A10.88,10.88,0,0,1,474.92,394.38Zm-11.64-10.46a7.56,7.56,0,0,0-7.72,7h15a6.86,6.86,0,0,0-1.82-4.85A7.11,7.11,0,0,0,463.28,383.92Z"></path>
      <path class="cls-4" d="M497,407.43V391.7c0-2.88-.43-4.89-1.3-6.05s-2.32-1.73-4.35-1.73a7.13,7.13,0,0,0-3.44,1,7.6,7.6,0,0,0-2.75,2.42v20.1h-4.79v-27h3.28l1.51,3.48c1.58-2.66,4.17-4,7.75-4q8.89,0,8.89,10.81v16.74Z"></path>
    </g>
  </g>
</svg>
